<?xml version="1.0" standalone="no"?><svg xmlns="http://www.w3.org/2000/svg" viewBox="0 0 1440 320"><path fill="#0099ff" fill-opacity="0.5" d="M0,96L26.7,101.3C53.3,107,107,117,160,133.3C213.3,149,267,171,320,165.3C373.3,160,427,128,480,138.7C533.3,149,587,203,640,186.7C693.3,171,747,85,800,69.3C853.3,53,907,107,960,144C1013.3,181,1067,203,1120,192C1173.3,181,1227,139,1280,138.7C1333.3,139,1387,181,1413,202.7L1440,224L1440,320L1413.3,320C1386.7,320,1333,320,1280,320C1226.7,320,1173,320,1120,320C1066.7,320,1013,320,960,320C906.7,320,853,320,800,320C746.7,320,693,320,640,320C586.7,320,533,320,480,320C426.7,320,373,320,320,320C266.7,320,213,320,160,320C106.7,320,53,320,27,320L0,320Z"></path></svg>